{"title":"The.Box.2009.DVDRip.XviD-Emery","uid":5339638,"size":740483491,"categoryP":"video","categoryS":"movies","magnet":"?xt=urn:btih:a58d1f055e301b0ea7bf2059604d1ee86204ffe2&amp;dn=The.Box.2009.DVDRip.XviD-Emery&amp;tr=udp%3A%2F%2Ftracker.openbittorrent.com%3A80&amp;tr=udp%3A%2F%2Fopen.demonii.com%3A1337&amp;tr=udp%3A%2F%2Ftracker.coppersurfer.tk%3A6969&amp;tr=udp%3A%2F%2Fexodus.desync.com%3A6969","seeders":0,"leechers":1,"uploader":"Emery2010","files":-1,"time":1265427170,"description":"\n\nThe.Box.2009.DVDRip.XviD-Emery\n\nMovie Name.....: The Box\nRelease Date...: February 5th, 2010\nMovie IMDB.....: http://www.imdb.com/title/tt0362478/\nRatings........: 6.1/10   8,686 votes  \nGenre..........: Drama | Horror | Mystery | Sci-Fi | Thriller\nDirector.......: Richard Kelly\nTagline........: You Are The Experiment \n\n\nPLOT\nA small wooden box arrives on the doorstep of a married couple,\nwho know that opening it will grant them a million dollars and kill \nsomeone they don't know\n\nVIDEO AND AUDIO DETAILS\n\nVideo\nID                               : 0\nFormat                           : MPEG-4 Visual\nFormat profile                   : AdvancedSimple@L5\nFormat settings, BVOP            : Yes\nFormat settings, QPel            : No\nFormat settings, GMC             : No warppoints\nFormat settings, Matrix          : Default (H.263)\nMuxing mode                      : Packed bitstream\nCodec ID                         : XVID\nCodec ID/Hint                    : XviD\nDuration                         : 1h 55mn\nBit rate                         : 713 Kbps\nWidth                            : 544 pixels\nHeight                           : 224 pixels\nDisplay aspect ratio             : 2.40:1\nFrame rate                       : 29.970 fps\nResolution                       : 24 bits\nColorimetry                      : 4:2:0\nScan type                        : Progressive\nBits/(Pixel*Frame)               : 0.195\nStream size                      : 590 MiB (84%)\nWriting library                  : XviD 1.2.1 (UTC 2008-12-04)\n\nAudio\nID                               : 1\nFormat                           : MPEG Audio\nFormat version                   : Version 1\nFormat profile                   : Layer 3\nFormat settings, Mode            : Joint stereo / MS Stereo\nCodec ID                         : 55\nCodec ID/Hint                    : MP3\nDuration                         : 1h 55mn\nBit rate mode                    : Constant\nBit rate                         : 128 Kbps\nChannel(s)                       : 2 channels\nSampling rate                    : 48.0 KHz\nResolution                       : 16 bits\nStream size                      : 106 MiB (15%)\nAlignment                        : Aligned on interleaves\nInterleave, duration             : 33 ms (1.00 video frame)\nInterleave, preload duration     : 504 ms\n\n","torrent":{"xt":"urn:btih:a58d1f055e301b0ea7bf2059604d1ee86204ffe2","amp;dn":"The.Box.2009.DVDRip.XviD-Emery","amp;tr":["udp%3A%2F%2Ftracker.openbittorrent.com%3A80","udp%3A%2F%2Fopen.demonii.com%3A1337","udp%3A%2F%2Ftracker.coppersurfer.tk%3A6969","udp%3A%2F%2Fexodus.desync.com%3A6969"],"infoHash":"a58d1f055e301b0ea7bf2059604d1ee86204ffe2","infoHashBuffer":{"type":"Buffer","data":[165,141,31,5,94,48,27,14,167,191,32,89,96,77,30,232,98,4,255,226]},"announce":[],"urlList":[]}}